<?xml version="1.0" standalone="no"?>
<!DOCTYPE svg PUBLIC "-//W3C//DTD SVG 20010904//EN"
 "http://www.w3.org/TR/2001/REC-SVG-20010904/DTD/svg10.dtd">
<svg version="1.0" xmlns="http://www.w3.org/2000/svg"
 width="24.000000pt" height="24.000000pt" viewBox="0 0 24.000000 24.000000"
 preserveAspectRatio="xMidYMid meet">

<g transform="translate(0.000000,24.000000) scale(0.100000,-0.100000)"
fill="#000000" stroke="none">
<path d="M40 120 l0 -100 38 0 c37 0 38 1 34 31 -5 37 29 79 65 79 32 0 30 30
-5 63 -23 22 -37 27 -80 27 l-52 0 0 -100z m120 55 l23 -25 -26 0 c-22 0 -27
5 -27 25 0 14 1 25 3 25 2 0 14 -11 27 -25z"/>
<path d="M146 94 c-32 -32 -6 -88 38 -82 11 1 26 -1 33 -5 6 -4 14 -3 17 2 4
5 2 12 -2 15 -5 3 -7 16 -5 29 9 46 -48 75 -81 41z m59 -34 c0 -18 -6 -26 -23
-28 -24 -4 -38 18 -28 44 3 9 15 14 28 12 17 -2 23 -10 23 -28z"/>
</g>
</svg>
